<?xml version="1.0" encoding="UTF-8" standalone="no"?>
<!-- Created with Inkscape (http://www.inkscape.org/) -->

<svg
   xmlns:dc="http://purl.org/dc/elements/1.1/"
   xmlns:cc="http://creativecommons.org/ns#"
   xmlns:rdf="http://www.w3.org/1999/02/22-rdf-syntax-ns#"
   xmlns:svg="http://www.w3.org/2000/svg"
   xmlns="http://www.w3.org/2000/svg"
   version="1.1"
   width="92.014763"
   height="92.052719"
   id="svg2">
  <title
     id="title2989">Python Ganymede Logo</title>
  <metadata
     id="metadata8">
    <rdf:RDF>
      <cc:Work
         rdf:about="">
        <dc:format>image/svg+xml</dc:format>
        <dc:type
           rdf:resource="http://purl.org/dc/dcmitype/StillImage" />
        <dc:title>Python Ganymede Logo</dc:title>
        <cc:license
           rdf:resource="http://creativecommons.org/licenses/by-nc-nd/3.0/" />
        <dc:creator>
          <cc:Agent>
            <dc:title>Stefan Zimmermann &lt;zimmermann.code@gmail.com&gt;</dc:title>
          </cc:Agent>
        </dc:creator>
        <dc:rights>
          <cc:Agent>
            <dc:title>Stefan Zimmermann &lt;zimmermann.code@gmail.com&gt;</dc:title>
          </cc:Agent>
        </dc:rights>
        <dc:publisher>
          <cc:Agent>
            <dc:title>Stefan Zimmermann &lt;zimmermann.code@gmail.com&gt;</dc:title>
          </cc:Agent>
        </dc:publisher>
        <dc:date>2015-03-27</dc:date>
        <dc:source>https://bitbucket.org/userzimmermann/ganymede/src/default/ganymede/static/ganymede.svg</dc:source>
      </cc:Work>
      <cc:License
         rdf:about="http://creativecommons.org/licenses/by-nc-nd/3.0/">
        <cc:permits
           rdf:resource="http://creativecommons.org/ns#Reproduction" />
        <cc:permits
           rdf:resource="http://creativecommons.org/ns#Distribution" />
        <cc:requires
           rdf:resource="http://creativecommons.org/ns#Notice" />
        <cc:requires
           rdf:resource="http://creativecommons.org/ns#Attribution" />
        <cc:prohibits
           rdf:resource="http://creativecommons.org/ns#CommercialUse" />
      </cc:License>
    </rdf:RDF>
  </metadata>
  <defs
     id="defs6" />
  <path
     d="M 0,92.05272 C 19.81097,91.71115 39.56719,84.77733 44.40391,80.09782 36.6998,83.92441 13.84208,84.55627 5.12855,83.40132 2.59424,85.6453 1.4412,87.82458 0,92.05272 z"
     id="path2989"
     style="fill:#693e70;fill-opacity:1;stroke:none" />
  <path
     d="M 45.42861,79.41468 C 52.43076,77.19449 65.26904,66.55163 69.67998,58.579 c -8.94852,5.7148 -30.0875,14.8874 -59.04489,14.83396 10.79684,6.90936 34.79352,6.00172 34.79352,6.00172 z"
     id="path2991"
     style="fill:#ac5d02;fill-opacity:1;stroke:none" />
  <path
     d="m 164.23729,136.34109 a 32.485168,32.485168 0 1 1 -64.970337,0 32.485168,32.485168 0 1 1 64.970337,0 z"
     transform="matrix(0.90833883,0,0,0.90833883,-74.59212,-91.844344)"
     id="path3767"
     style="fill:#443f3c;fill-opacity:1" />
  <path
     d="M 71.12675,56.95601 C 76.61177,53.09331 83.55313,41.3894 84.41065,34.37339 71.7556,45.71588 44.62268,57.47964 18.57424,60.00439 33.9804,65.47688 58.61028,62.28294 71.12675,56.95601 z"
     id="path2993"
     style="fill:#fd4c4c;fill-opacity:1;stroke:none" />
  <path
     d="M 85.39213,31.76587 C 88.23531,27.70905 89.34287,23.77902 89.66174,17.76156 78.91038,26.39948 49.455,38.81141 27.27988,43.27916 44.11408,45.50502 72.28303,41.66269 85.39213,31.76587 z"
     id="path2995"
     style="fill:#d6d3d1;fill-opacity:1;stroke:none" />
  <path
     d="M 90.34487,15.02901 C 92.39428,9.73471 92.05271,4.09882 91.88193,0 83.05275,12.85177 53.40988,20.20613 31.54949,25.84201 c 17.93946,1.96151 45.89726,-2.58865 58.79538,-10.813 z"
     id="path2997"
     style="fill:#ff9f41;fill-opacity:1;stroke:none" />
</svg>
